<svg xmlns="http://www.w3.org/2000/svg" viewBox="0 0 335.31 58.52"><defs><style>.cls-1{fill:#bc8cf3;}.cls-2{fill:none;stroke:#231f20;stroke-miterlimit:10;stroke-width:2px;}</style></defs><title>Asset 6</title><g id="Layer_2" data-name="Layer 2"><g id="Layer_4" data-name="Layer 4"><path class="cls-1" d="M22.21,6.46h7.86l22,51.05H41.68L36.92,45.83H14.78L10.17,57.51H0ZM33.75,38,25.89,17.28,17.88,38Z"/><path class="cls-1" d="M65.47,3V27.3h.22a12.74,12.74,0,0,1,1.66-1.8,12.32,12.32,0,0,1,2.41-1.73,15,15,0,0,1,7.54-1.88,16.21,16.21,0,0,1,12.11,5.26,17.55,17.55,0,0,1,3.46,5.77,20.4,20.4,0,0,1,1.23,7.14,21.42,21.42,0,0,1-1.19,7.18,17.89,17.89,0,0,1-3.39,5.84,16.19,16.19,0,0,1-12.44,5.44,15.32,15.32,0,0,1-6.89-1.59,11.7,11.7,0,0,1-5-4.61H65v5.19H56.82V3ZM85.3,40.06a13.77,13.77,0,0,0-.61-4,11.21,11.21,0,0,0-1.84-3.57,9.24,9.24,0,0,0-3.1-2.56,9.42,9.42,0,0,0-4.4-1,8.7,8.7,0,0,0-4.25,1,10.84,10.84,0,0,0-3.21,2.59,11,11,0,0,0-2,3.61,12.39,12.39,0,0,0-.69,4,12.11,12.11,0,0,0,.69,4,11.07,11.07,0,0,0,2,3.57,10.44,10.44,0,0,0,3.21,2.56,9,9,0,0,0,4.25,1,9.19,9.19,0,0,0,4.4-1,9.69,9.69,0,0,0,3.1-2.59,11.1,11.1,0,0,0,1.84-3.61A14.14,14.14,0,0,0,85.3,40.06Z"/><path class="cls-1" d="M100.44,40.06a18.2,18.2,0,0,1,1.48-7.46,17.28,17.28,0,0,1,4-5.73,17.48,17.48,0,0,1,6-3.68,21.46,21.46,0,0,1,14.71,0,17.53,17.53,0,0,1,6,3.68,17.28,17.28,0,0,1,4,5.73,18.2,18.2,0,0,1,1.48,7.46,18.49,18.49,0,0,1-1.48,7.5,17.72,17.72,0,0,1-4,5.81,18.24,18.24,0,0,1-6,3.78,20.43,20.43,0,0,1-14.71,0,18.19,18.19,0,0,1-6-3.78,17.72,17.72,0,0,1-4-5.81A18.49,18.49,0,0,1,100.44,40.06Zm8.8,0a13.8,13.8,0,0,0,.61,4,11.1,11.1,0,0,0,1.84,3.61,9.69,9.69,0,0,0,3.1,2.59,10.4,10.4,0,0,0,8.94,0,9.69,9.69,0,0,0,3.1-2.59,11.1,11.1,0,0,0,1.84-3.61,13.8,13.8,0,0,0,.61-4,13.44,13.44,0,0,0-.61-4,11.21,11.21,0,0,0-1.84-3.57,9.24,9.24,0,0,0-3.1-2.56,10.78,10.78,0,0,0-8.94,0,9.24,9.24,0,0,0-3.1,2.56,11.21,11.21,0,0,0-1.84,3.57A13.44,13.44,0,0,0,109.24,40.06Z"/><path class="cls-1" d="M178,57.51h-8.21V52h-.15a11.18,11.18,0,0,1-4,4.58,11.52,11.52,0,0,1-6.74,2,13.09,13.09,0,0,1-5.81-1.19,11.34,11.34,0,0,1-4-3.14,12.44,12.44,0,0,1-2.27-4.47,18.44,18.44,0,0,1-.73-5.19V22.9h8.66V42.08a25.17,25.17,0,0,0,.21,3.17,8.72,8.72,0,0,0,.94,3,6.12,6.12,0,0,0,2,2.19,5.81,5.81,0,0,0,3.36.87,7.43,7.43,0,0,0,6.09-3,9.4,9.4,0,0,0,1.48-3,12.15,12.15,0,0,0,.5-3.42v-19H178Z"/><path class="cls-1" d="M183.43,29.82V22.9h6.06v-10H198v10h8.65v6.92H198V45.9a7.8,7.8,0,0,0,.83,3.82c.55,1,1.79,1.52,3.71,1.52a10.62,10.62,0,0,0,1.87-.18,7.55,7.55,0,0,0,1.81-.54l.29,6.77a14.38,14.38,0,0,1-2.74.69,19.13,19.13,0,0,1-3,.25,13.85,13.85,0,0,1-5.63-1,8.53,8.53,0,0,1-3.42-2.67A9.88,9.88,0,0,1,190,50.7a22.18,22.18,0,0,1-.47-4.73V29.82Z"/><path class="cls-1" d="M231.38,6.46h14.21l13.26,36.27h.22L272.19,6.46h14.28V57.51h-9v-41h-.15l-15.5,41h-6.35l-15.28-41H240v41h-8.65Z"/><path class="cls-1" d="M330.31,40.64v1.15a11.28,11.28,0,0,1-.07,1.16H303.92a8.47,8.47,0,0,0,1,3.42,8.72,8.72,0,0,0,2.2,2.67,11.26,11.26,0,0,0,3.1,1.77,10.29,10.29,0,0,0,3.61.64,11.47,11.47,0,0,0,5.48-1.19A10.15,10.15,0,0,0,323,47l5.77,4.62q-5.12,6.91-14.85,6.92a21.18,21.18,0,0,1-7.43-1.26,17.36,17.36,0,0,1-5.87-3.57,16.18,16.18,0,0,1-3.9-5.66,19.48,19.48,0,0,1-1.4-7.61,19.78,19.78,0,0,1,1.4-7.6A17.5,17.5,0,0,1,300.53,27a17.24,17.24,0,0,1,5.8-3.74,19.47,19.47,0,0,1,7.25-1.34,18.34,18.34,0,0,1,6.67,1.19,14.47,14.47,0,0,1,5.3,3.53,16.45,16.45,0,0,1,3.5,5.84A24.18,24.18,0,0,1,330.31,40.64Zm-8.65-3.89a10.78,10.78,0,0,0-.47-3.18,7,7,0,0,0-4-4.5,8.89,8.89,0,0,0-3.64-.69,9.73,9.73,0,0,0-6.6,2.34,8.56,8.56,0,0,0-3,6Z"/><path class="cls-2" d="M26.21,4.46h7.86l22,51.05H45.68L40.92,43.83H18.78L14.17,55.51H4ZM37.75,36,29.89,15.28,21.88,36Z"/><path class="cls-2" d="M69.47,1V25.3h.22a12.74,12.74,0,0,1,1.66-1.8,12.32,12.32,0,0,1,2.41-1.73,15,15,0,0,1,7.54-1.88,16.21,16.21,0,0,1,12.11,5.26,17.55,17.55,0,0,1,3.46,5.77,20.4,20.4,0,0,1,1.23,7.14,21.42,21.42,0,0,1-1.19,7.18,17.89,17.89,0,0,1-3.39,5.84,16.19,16.19,0,0,1-12.44,5.44,15.32,15.32,0,0,1-6.89-1.59,11.7,11.7,0,0,1-5-4.61H69v5.19H60.82V1ZM89.3,38.06a13.77,13.77,0,0,0-.61-4,11.21,11.21,0,0,0-1.84-3.57,9.24,9.24,0,0,0-3.1-2.56,9.42,9.42,0,0,0-4.4-1,8.7,8.7,0,0,0-4.25,1,10.84,10.84,0,0,0-3.21,2.59,11,11,0,0,0-2,3.61,12.39,12.39,0,0,0-.69,4,12.11,12.11,0,0,0,.69,4,11.07,11.07,0,0,0,2,3.57,10.44,10.44,0,0,0,3.21,2.56,9,9,0,0,0,4.25,1,9.19,9.19,0,0,0,4.4-1,9.69,9.69,0,0,0,3.1-2.59,11.1,11.1,0,0,0,1.84-3.61A14.14,14.14,0,0,0,89.3,38.06Z"/><path class="cls-2" d="M104.44,38.06a18.2,18.2,0,0,1,1.48-7.46,17.28,17.28,0,0,1,4-5.73,17.48,17.48,0,0,1,6-3.68,21.46,21.46,0,0,1,14.71,0,17.53,17.53,0,0,1,6,3.68,17.28,17.28,0,0,1,4,5.73,18.2,18.2,0,0,1,1.48,7.46,18.49,18.49,0,0,1-1.48,7.5,17.72,17.72,0,0,1-4,5.81,18.24,18.24,0,0,1-6,3.78,20.43,20.43,0,0,1-14.71,0,18.19,18.19,0,0,1-6-3.78,17.72,17.72,0,0,1-4-5.81A18.49,18.49,0,0,1,104.44,38.06Zm8.8,0a13.8,13.8,0,0,0,.61,4,11.1,11.1,0,0,0,1.84,3.61,9.69,9.69,0,0,0,3.1,2.59,10.4,10.4,0,0,0,8.94,0,9.69,9.69,0,0,0,3.1-2.59,11.1,11.1,0,0,0,1.84-3.61,13.8,13.8,0,0,0,.61-4,13.44,13.44,0,0,0-.61-4,11.21,11.21,0,0,0-1.84-3.57,9.24,9.24,0,0,0-3.1-2.56,10.78,10.78,0,0,0-8.94,0,9.24,9.24,0,0,0-3.1,2.56,11.21,11.21,0,0,0-1.84,3.57A13.44,13.44,0,0,0,113.24,38.06Z"/><path class="cls-2" d="M182,55.51h-8.21V50h-.15a11.18,11.18,0,0,1-4,4.58,11.52,11.52,0,0,1-6.74,2,13.09,13.09,0,0,1-5.81-1.19,11.34,11.34,0,0,1-4-3.14,12.44,12.44,0,0,1-2.27-4.47,18.44,18.44,0,0,1-.73-5.19V20.9h8.66V40.08a25.17,25.17,0,0,0,.21,3.17,8.72,8.72,0,0,0,.94,3,6.12,6.12,0,0,0,2,2.19,5.81,5.81,0,0,0,3.36.87,7.43,7.43,0,0,0,6.09-3,9.4,9.4,0,0,0,1.48-3,12.15,12.15,0,0,0,.5-3.42v-19H182Z"/><path class="cls-2" d="M187.43,27.82V20.9h6.06v-10H202v10h8.65v6.92H202V43.9a7.8,7.8,0,0,0,.83,3.82c.55,1,1.79,1.52,3.71,1.52a10.62,10.62,0,0,0,1.87-.18,7.55,7.55,0,0,0,1.81-.54l.29,6.77a14.38,14.38,0,0,1-2.74.69,19.13,19.13,0,0,1-3,.25,13.85,13.85,0,0,1-5.63-1,8.53,8.53,0,0,1-3.42-2.67A9.88,9.88,0,0,1,194,48.7a22.18,22.18,0,0,1-.47-4.73V27.82Z"/><path class="cls-2" d="M235.38,4.46h14.21l13.26,36.27h.22L276.19,4.46h14.28V55.51h-9v-41h-.15l-15.5,41h-6.35l-15.28-41H244v41h-8.65Z"/><path class="cls-2" d="M334.31,38.64v1.15a11.28,11.28,0,0,1-.07,1.16H307.92a8.47,8.47,0,0,0,1,3.42,8.72,8.72,0,0,0,2.2,2.67,11.26,11.26,0,0,0,3.1,1.77,10.29,10.29,0,0,0,3.61.64,11.47,11.47,0,0,0,5.48-1.19A10.15,10.15,0,0,0,327,45l5.77,4.62q-5.12,6.91-14.85,6.92a21.18,21.18,0,0,1-7.43-1.26,17.36,17.36,0,0,1-5.87-3.57,16.18,16.18,0,0,1-3.9-5.66,19.48,19.48,0,0,1-1.4-7.61,19.78,19.78,0,0,1,1.4-7.6A17.5,17.5,0,0,1,304.53,25a17.24,17.24,0,0,1,5.8-3.74,19.47,19.47,0,0,1,7.25-1.34,18.34,18.34,0,0,1,6.67,1.19,14.47,14.47,0,0,1,5.3,3.53,16.45,16.45,0,0,1,3.5,5.84A24.18,24.18,0,0,1,334.31,38.64Zm-8.65-3.89a10.78,10.78,0,0,0-.47-3.18,7,7,0,0,0-4-4.5,8.89,8.89,0,0,0-3.64-.69,9.73,9.73,0,0,0-6.6,2.34,8.56,8.56,0,0,0-3,6Z"/></g></g></svg>