<svg xmlns="http://www.w3.org/2000/svg" viewBox="0 0 256.49 57.57"><defs><style>.cls-1{fill:#bc8cf3;}.cls-2{fill:none;stroke:#000;stroke-miterlimit:10;stroke-width:2px;}</style></defs><title>Asset 5</title><g id="Layer_2" data-name="Layer 2"><g id="Layer_3" data-name="Layer 3"><path class="cls-1" d="M39.24,17.25a11.57,11.57,0,0,0-5.26-4,17.63,17.63,0,0,0-13.53.18,16.88,16.88,0,0,0-5.58,4,17.58,17.58,0,0,0-3.6,5.91A20.84,20.84,0,0,0,10,30.64a22.87,22.87,0,0,0,1.22,7.63,17.19,17.19,0,0,0,3.49,5.94,15.71,15.71,0,0,0,5.44,3.85,17.68,17.68,0,0,0,7.13,1.37,15.75,15.75,0,0,0,7.27-1.62,14.22,14.22,0,0,0,5.11-4.28l7.27,5.11a23.22,23.22,0,0,1-8.28,6.59,26.26,26.26,0,0,1-11.44,2.34,29.54,29.54,0,0,1-11-2A24.82,24.82,0,0,1,2,41.55,28.49,28.49,0,0,1,0,30.64a27.77,27.77,0,0,1,2.12-11A24.53,24.53,0,0,1,8,11.2,25.94,25.94,0,0,1,16.7,5.87,31.16,31.16,0,0,1,27.65,4a29.79,29.79,0,0,1,5.11.47,25.6,25.6,0,0,1,5.11,1.44,24.93,24.93,0,0,1,4.61,2.41,14.76,14.76,0,0,1,3.67,3.46Z"/><path class="cls-1" d="M49.37,38.85a18.15,18.15,0,0,1,1.48-7.45,17.35,17.35,0,0,1,4-5.73,17.57,17.57,0,0,1,6-3.67,21.4,21.4,0,0,1,14.69,0,17.18,17.18,0,0,1,10,9.4A18.31,18.31,0,0,1,87,38.85a18.64,18.64,0,0,1-1.47,7.49,17.89,17.89,0,0,1-4,5.79,18.2,18.2,0,0,1-6,3.78,20.37,20.37,0,0,1-14.69,0,18.14,18.14,0,0,1-6-3.78,17.71,17.71,0,0,1-4-5.79A18.48,18.48,0,0,1,49.37,38.85Zm8.78,0a13.75,13.75,0,0,0,.62,4,11.13,11.13,0,0,0,1.83,3.6,9.57,9.57,0,0,0,3.1,2.59,10.37,10.37,0,0,0,8.93,0,9.53,9.53,0,0,0,3.09-2.59,11.15,11.15,0,0,0,1.84-3.6,13.73,13.73,0,0,0,.61-4,13.39,13.39,0,0,0-.61-4,11.06,11.06,0,0,0-1.84-3.56,9.21,9.21,0,0,0-3.09-2.56,10.76,10.76,0,0,0-8.93,0,9.24,9.24,0,0,0-3.1,2.56,11,11,0,0,0-1.83,3.56A13.4,13.4,0,0,0,58.15,38.85Z"/><path class="cls-1" d="M94,21.71h8.2v5.55h.15a11.15,11.15,0,0,1,4-4.58,11.5,11.5,0,0,1,6.74-2,13,13,0,0,1,5.79,1.19,11.43,11.43,0,0,1,4,3.13,12.77,12.77,0,0,1,2.27,4.47,18.78,18.78,0,0,1,.72,5.18v21.6h-8.64V37.12A23.59,23.59,0,0,0,117,34a8.51,8.51,0,0,0-.93-3,6.21,6.21,0,0,0-2-2.19,5.8,5.8,0,0,0-3.35-.87,7.28,7.28,0,0,0-6.08,3,9.25,9.25,0,0,0-1.48,3,11.8,11.8,0,0,0-.5,3.42v19H94Z"/><path class="cls-1" d="M129.87,28.62V21.71h6v-10h8.5v10h8.64v6.91h-8.64V44.68a7.92,7.92,0,0,0,.82,3.82C145.79,49.5,147,50,149,50a10.62,10.62,0,0,0,1.87-.18,7.46,7.46,0,0,0,1.8-.54l.29,6.77a15.1,15.1,0,0,1-2.73.68,19.13,19.13,0,0,1-3,.25,13.75,13.75,0,0,1-5.61-1,8.52,8.52,0,0,1-3.42-2.66,9.74,9.74,0,0,1-1.73-3.89,22.15,22.15,0,0,1-.47-4.72V28.62Z"/><path class="cls-1" d="M180.5,51.88h-.21a9.64,9.64,0,0,1-4.18,3.78,14.2,14.2,0,0,1-6.55,1.48,18.83,18.83,0,0,1-4.36-.54A12.93,12.93,0,0,1,161,54.8a10.39,10.39,0,0,1-3.17-3.32,9.51,9.51,0,0,1-1.26-5.07,8.61,8.61,0,0,1,2.19-6.19,14.12,14.12,0,0,1,5.66-3.53,31.45,31.45,0,0,1,7.66-1.62q4.21-.41,8.25-.4v-.86A5.34,5.34,0,0,0,178,29a9.9,9.9,0,0,0-5.58-1.55,12.62,12.62,0,0,0-5.26,1.15A14.18,14.18,0,0,0,163,31.43l-4.47-5.25a19.42,19.42,0,0,1,6.81-4.11,23.2,23.2,0,0,1,7.81-1.37,19.23,19.23,0,0,1,7.59,1.3,11.79,11.79,0,0,1,7.13,8.06,20.12,20.12,0,0,1,.69,5.19v21H180.5Zm-.14-11.38h-2c-1.39,0-2.85.06-4.39.18a19,19,0,0,0-4.25.8,9.1,9.1,0,0,0-3.24,1.72,3.85,3.85,0,0,0-1.29,3.06,3.72,3.72,0,0,0,.54,2.06,4.24,4.24,0,0,0,1.4,1.33,6.66,6.66,0,0,0,1.95.72,11.29,11.29,0,0,0,2.16.21c3,0,5.23-.79,6.76-2.37a8.92,8.92,0,0,0,2.31-6.48Z"/><path class="cls-1" d="M221,31.29a7.55,7.55,0,0,0-3-2.41,9.36,9.36,0,0,0-4.11-1,8.62,8.62,0,0,0-4.17,1,9,9,0,0,0-3,2.55A11,11,0,0,0,204.92,35a14,14,0,0,0-.58,4,13.39,13.39,0,0,0,.61,4,11.06,11.06,0,0,0,1.84,3.56,9.19,9.19,0,0,0,3.06,2.56,9,9,0,0,0,4.28,1,10.86,10.86,0,0,0,4-.79A7.62,7.62,0,0,0,221.4,47l5.4,5.48A14.36,14.36,0,0,1,221.3,56a20.44,20.44,0,0,1-7.24,1.26,21.5,21.5,0,0,1-7.24-1.22,17.22,17.22,0,0,1-6-3.6,17,17,0,0,1-4-5.76A19,19,0,0,1,195.34,39a18.65,18.65,0,0,1,1.48-7.56,17.38,17.38,0,0,1,4-5.76A17.88,17.88,0,0,1,206.68,22a19.74,19.74,0,0,1,7.16-1.3,19.48,19.48,0,0,1,7.38,1.44,14,14,0,0,1,5.66,4Z"/><path class="cls-1" d="M229.31,28.62V21.71h6.05v-10h8.49v10h8.64v6.91h-8.64V44.68a7.91,7.91,0,0,0,.83,3.82c.55,1,1.79,1.51,3.71,1.51a10.71,10.71,0,0,0,1.87-.18,7.6,7.6,0,0,0,1.8-.54l.29,6.77a15,15,0,0,1-2.74.68,18.91,18.91,0,0,1-3,.25A13.77,13.77,0,0,1,241,56a8.59,8.59,0,0,1-3.42-2.66,10,10,0,0,1-1.73-3.89,22.84,22.84,0,0,1-.46-4.72V28.62Z"/><path class="cls-2" d="M42.24,14.25a11.57,11.57,0,0,0-5.26-4,17.63,17.63,0,0,0-13.53.18,16.88,16.88,0,0,0-5.58,4,17.58,17.58,0,0,0-3.6,5.91A20.84,20.84,0,0,0,13,27.64a22.87,22.87,0,0,0,1.22,7.63,17.19,17.19,0,0,0,3.49,5.94,15.71,15.71,0,0,0,5.44,3.85,17.68,17.68,0,0,0,7.13,1.37,15.75,15.75,0,0,0,7.27-1.62,14.22,14.22,0,0,0,5.11-4.28l7.27,5.11a23.22,23.22,0,0,1-8.28,6.59,26.26,26.26,0,0,1-11.44,2.34,29.54,29.54,0,0,1-11-2A24.82,24.82,0,0,1,5,38.55,28.49,28.49,0,0,1,3,27.64a27.77,27.77,0,0,1,2.12-11A24.53,24.53,0,0,1,11,8.2,25.94,25.94,0,0,1,19.7,2.87,31.16,31.16,0,0,1,30.65,1a29.79,29.79,0,0,1,5.11.47,25.6,25.6,0,0,1,5.11,1.44,24.93,24.93,0,0,1,4.61,2.41,14.76,14.76,0,0,1,3.67,3.46Z"/><path class="cls-2" d="M52.37,35.85a18.15,18.15,0,0,1,1.48-7.45,17.35,17.35,0,0,1,4-5.73,17.57,17.57,0,0,1,6-3.67,21.4,21.4,0,0,1,14.69,0,17.18,17.18,0,0,1,10,9.4A18.31,18.31,0,0,1,90,35.85a18.64,18.64,0,0,1-1.47,7.49,17.89,17.89,0,0,1-4,5.79,18.2,18.2,0,0,1-6,3.78,20.37,20.37,0,0,1-14.69,0,18.14,18.14,0,0,1-6-3.78,17.71,17.71,0,0,1-4-5.79A18.48,18.48,0,0,1,52.37,35.85Zm8.78,0a13.75,13.75,0,0,0,.62,4,11.13,11.13,0,0,0,1.83,3.6,9.57,9.57,0,0,0,3.1,2.59,10.37,10.37,0,0,0,8.93,0,9.53,9.53,0,0,0,3.09-2.59,11.15,11.15,0,0,0,1.84-3.6,13.73,13.73,0,0,0,.61-4,13.39,13.39,0,0,0-.61-4,11.06,11.06,0,0,0-1.84-3.56,9.21,9.21,0,0,0-3.09-2.56,10.76,10.76,0,0,0-8.93,0,9.24,9.24,0,0,0-3.1,2.56,11,11,0,0,0-1.83,3.56A13.4,13.4,0,0,0,61.15,35.85Z"/><path class="cls-2" d="M97,18.71h8.2v5.55h.15a11.15,11.15,0,0,1,4-4.58,11.5,11.5,0,0,1,6.74-2,13,13,0,0,1,5.79,1.19,11.43,11.43,0,0,1,4,3.13,12.77,12.77,0,0,1,2.27,4.47,18.78,18.78,0,0,1,.72,5.18v21.6h-8.64V34.12A23.59,23.59,0,0,0,120,31a8.51,8.51,0,0,0-.93-3,6.21,6.21,0,0,0-2-2.19,5.8,5.8,0,0,0-3.35-.87,7.28,7.28,0,0,0-6.08,3,9.25,9.25,0,0,0-1.48,3,11.8,11.8,0,0,0-.5,3.42v19H97Z"/><path class="cls-2" d="M132.87,25.62V18.71h6V8.7h8.5v10h8.64v6.91h-8.64V41.68a7.92,7.92,0,0,0,.82,3.82C148.79,46.5,150,47,152,47a10.62,10.62,0,0,0,1.87-.18,7.46,7.46,0,0,0,1.8-.54l.29,6.77a15.1,15.1,0,0,1-2.73.68,19.13,19.13,0,0,1-3,.25,13.75,13.75,0,0,1-5.61-1,8.52,8.52,0,0,1-3.42-2.66,9.74,9.74,0,0,1-1.73-3.89,22.15,22.15,0,0,1-.47-4.72V25.62Z"/><path class="cls-2" d="M183.5,48.88h-.21a9.64,9.64,0,0,1-4.18,3.78,14.2,14.2,0,0,1-6.55,1.48,18.83,18.83,0,0,1-4.36-.54A12.93,12.93,0,0,1,164,51.8a10.39,10.39,0,0,1-3.17-3.32,9.51,9.51,0,0,1-1.26-5.07,8.61,8.61,0,0,1,2.19-6.19,14.12,14.12,0,0,1,5.66-3.53,31.45,31.45,0,0,1,7.66-1.62q4.21-.41,8.25-.4v-.86A5.34,5.34,0,0,0,181,26a9.9,9.9,0,0,0-5.58-1.55,12.62,12.62,0,0,0-5.26,1.15A14.18,14.18,0,0,0,166,28.43l-4.47-5.25a19.42,19.42,0,0,1,6.81-4.11,23.2,23.2,0,0,1,7.81-1.37,19.23,19.23,0,0,1,7.59,1.3,11.79,11.79,0,0,1,7.13,8.06,20.12,20.12,0,0,1,.69,5.19v21H183.5Zm-.14-11.38h-2c-1.39,0-2.85.06-4.39.18a19,19,0,0,0-4.25.8,9.1,9.1,0,0,0-3.24,1.72,3.85,3.85,0,0,0-1.29,3.06,3.72,3.72,0,0,0,.54,2.06,4.24,4.24,0,0,0,1.4,1.33,6.66,6.66,0,0,0,1.95.72,11.29,11.29,0,0,0,2.16.21c3,0,5.23-.79,6.76-2.37a8.92,8.92,0,0,0,2.31-6.48Z"/><path class="cls-2" d="M224,28.29a7.55,7.55,0,0,0-3-2.41,9.36,9.36,0,0,0-4.11-1,8.62,8.62,0,0,0-4.17,1,9,9,0,0,0-3,2.55A11,11,0,0,0,207.92,32a14,14,0,0,0-.58,4,13.39,13.39,0,0,0,.61,4,11.06,11.06,0,0,0,1.84,3.56,9.19,9.19,0,0,0,3.06,2.56,9,9,0,0,0,4.28,1,10.86,10.86,0,0,0,4-.79A7.62,7.62,0,0,0,224.4,44l5.4,5.48A14.36,14.36,0,0,1,224.3,53a20.44,20.44,0,0,1-7.24,1.26,21.5,21.5,0,0,1-7.24-1.22,17.22,17.22,0,0,1-6-3.6,17,17,0,0,1-4-5.76A19,19,0,0,1,198.34,36a18.65,18.65,0,0,1,1.48-7.56,17.38,17.38,0,0,1,4-5.76A17.88,17.88,0,0,1,209.68,19a19.74,19.74,0,0,1,7.16-1.3,19.48,19.48,0,0,1,7.38,1.44,14,14,0,0,1,5.66,4Z"/><path class="cls-2" d="M232.31,25.62V18.71h6.05V8.7h8.49v10h8.64v6.91h-8.64V41.68a7.91,7.91,0,0,0,.83,3.82c.55,1,1.79,1.51,3.71,1.51a10.71,10.71,0,0,0,1.87-.18,7.6,7.6,0,0,0,1.8-.54l.29,6.77a15,15,0,0,1-2.74.68,18.91,18.91,0,0,1-3,.25A13.77,13.77,0,0,1,244,53a8.59,8.59,0,0,1-3.42-2.66,10,10,0,0,1-1.73-3.89,22.84,22.84,0,0,1-.46-4.72V25.62Z"/></g></g></svg>