<svg width="173" height="60" viewBox="0 0 173 60" fill="none" xmlns="http://www.w3.org/2000/svg">
<path d="M0.616028 7.024H9.68803V27.616H33.52V7.024H42.592V58H33.52V35.392H9.68803V58H0.616028V7.024Z" fill="#BC8CF3"/>
<path d="M77.7466 37.264C77.7466 36.16 77.5786 35.104 77.2426 34.096C76.9546 33.088 76.4746 32.2 75.8026 31.432C75.1306 30.664 74.2666 30.064 73.2106 29.632C72.2026 29.152 71.0026 28.912 69.6106 28.912C67.0186 28.912 64.8106 29.704 62.9866 31.288C61.2106 32.824 60.2266 34.816 60.0346 37.264H77.7466ZM86.3866 41.152C86.3866 41.536 86.3866 41.92 86.3866 42.304C86.3866 42.688 86.3626 43.072 86.3146 43.456H60.0346C60.1306 44.704 60.4426 45.856 60.9706 46.912C61.5466 47.92 62.2906 48.808 63.2026 49.576C64.1146 50.296 65.1466 50.872 66.2986 51.304C67.4506 51.736 68.6506 51.952 69.8986 51.952C72.0586 51.952 73.8826 51.568 75.3706 50.8C76.8586 49.984 78.0826 48.88 79.0426 47.488L84.8026 52.096C81.3946 56.704 76.4506 59.008 69.9706 59.008C67.2826 59.008 64.8106 58.6 62.5546 57.784C60.2986 56.92 58.3306 55.72 56.6506 54.184C55.0186 52.648 53.7226 50.776 52.7626 48.568C51.8506 46.312 51.3946 43.768 51.3946 40.936C51.3946 38.152 51.8506 35.632 52.7626 33.376C53.7226 31.072 55.0186 29.128 56.6506 27.544C58.2826 25.912 60.2026 24.664 62.4106 23.8C64.6666 22.888 67.0906 22.432 69.6826 22.432C72.0826 22.432 74.2906 22.84 76.3066 23.656C78.3706 24.424 80.1466 25.6 81.6346 27.184C83.1226 28.72 84.2746 30.664 85.0906 33.016C85.9546 35.32 86.3866 38.032 86.3866 41.152Z" fill="#BC8CF3"/>
<path d="M94.8983 3.56799H103.538V58H94.8983V3.56799Z" fill="#BC8CF3"/>
<path d="M114.164 3.56799H122.804V58H114.164V3.56799Z" fill="#BC8CF3"/>
<path d="M131.27 40.576C131.27 37.84 131.75 35.368 132.71 33.16C133.718 30.904 135.062 28.984 136.742 27.4C138.422 25.816 140.414 24.592 142.718 23.728C145.022 22.864 147.47 22.432 150.062 22.432C152.654 22.432 155.102 22.864 157.406 23.728C159.71 24.592 161.702 25.816 163.382 27.4C165.062 28.984 166.382 30.904 167.342 33.16C168.35 35.368 168.854 37.84 168.854 40.576C168.854 43.312 168.35 45.808 167.342 48.064C166.382 50.32 165.062 52.264 163.382 53.896C161.702 55.48 159.71 56.728 157.406 57.64C155.102 58.552 152.654 59.008 150.062 59.008C147.47 59.008 145.022 58.552 142.718 57.64C140.414 56.728 138.422 55.48 136.742 53.896C135.062 52.264 133.718 50.32 132.71 48.064C131.75 45.808 131.27 43.312 131.27 40.576ZM140.054 40.576C140.054 41.92 140.246 43.264 140.63 44.608C141.062 45.952 141.686 47.152 142.502 48.208C143.318 49.264 144.35 50.128 145.598 50.8C146.846 51.472 148.334 51.808 150.062 51.808C151.79 51.808 153.278 51.472 154.526 50.8C155.774 50.128 156.806 49.264 157.622 48.208C158.438 47.152 159.038 45.952 159.422 44.608C159.854 43.264 160.07 41.92 160.07 40.576C160.07 39.232 159.854 37.912 159.422 36.616C159.038 35.272 158.438 34.072 157.622 33.016C156.806 31.96 155.774 31.12 154.526 30.496C153.278 29.824 151.79 29.488 150.062 29.488C148.334 29.488 146.846 29.824 145.598 30.496C144.35 31.12 143.318 31.96 142.502 33.016C141.686 34.072 141.062 35.272 140.63 36.616C140.246 37.912 140.054 39.232 140.054 40.576Z" fill="#BC8CF3"/>
<path d="M3.61603 4.524H3.11603V5.024V56V56.5H3.61603H12.688H13.188V56V33.892H36.02V56V56.5H36.52H45.592H46.092V56V5.024V4.524H45.592H36.52H36.02V5.024V25.116H13.188V5.024V4.524H12.688H3.61603ZM79.7618 32.2334L79.7648 32.2438L79.7682 32.2541C80.0358 33.0568 80.1915 33.8929 80.2344 34.764H63.5898C63.8655 32.6888 64.7734 30.9983 66.3137 29.6662L66.3144 29.6655C68.0405 28.1665 70.1295 27.412 72.6106 27.412C73.9461 27.412 75.0693 27.6423 75.9956 28.0834L76.0083 28.0895L76.0213 28.0948C77.014 28.5009 77.8112 29.0583 78.4263 29.7612C79.0484 30.4722 79.4935 31.2942 79.7618 32.2334ZM89.3146 41.956H89.756L89.8107 41.518C89.8613 41.1136 89.8866 40.7089 89.8866 40.304V40.3017V40.2995V40.2972V40.295V40.2927V40.2905V40.2882V40.286V40.2837V40.2815V40.2792V40.277V40.2747V40.2725V40.2702V40.268V40.2657V40.2635V40.2612V40.259V40.2567V40.2545V40.2522V40.25V40.2477V40.2455V40.2432V40.241V40.2387V40.2365V40.2342V40.232V40.2297V40.2275V40.2252V40.223V40.2207V40.2185V40.2162V40.214V40.2117V40.2095V40.2072V40.205V40.2027V40.2005V40.1982V40.196V40.1937V40.1915V40.1892V40.187V40.1847V40.1825V40.1802V40.178V40.1757V40.1735V40.1712V40.169V40.1667V40.1645V40.1622V40.16V40.1577V40.1555V40.1532V40.151V40.1487V40.1465V40.1442V40.142V40.1397V40.1375V40.1352V40.133V40.1307V40.1285V40.1262V40.124V40.1217V40.1195V40.1172V40.115V40.1127V40.1105V40.1082V40.106V40.1037V40.1015V40.0992V40.097V40.0947V40.0925V40.0902V40.088V40.0857V40.0835V40.0812V40.079V40.0767V40.0745V40.0722V40.07V40.0677V40.0655V40.0632V40.061V40.0587V40.0565V40.0542V40.052V40.0497V40.0475V40.0452V40.043V40.0407V40.0385V40.0362V40.034V40.0317V40.0295V40.0272V40.025V40.0227V40.0205V40.0182V40.016V40.0137V40.0115V40.0092V40.007V40.0047V40.0025V40.0002V39.998V39.9957V39.9935V39.9912V39.989V39.9867V39.9845V39.9822V39.98V39.9777V39.9755V39.9732V39.971V39.9687V39.9665V39.9642V39.962V39.9597V39.9575V39.9552V39.953V39.9507V39.9485V39.9462V39.944V39.9417V39.9395V39.9372V39.935V39.9327V39.9305V39.9282V39.926V39.9237V39.9215V39.9192V39.917V39.9147V39.9125V39.9102V39.908V39.9057V39.9035V39.9012V39.899V39.8967V39.8945V39.8922V39.89V39.8877V39.8855V39.8832V39.881V39.8787V39.8765V39.8742V39.872V39.8697V39.8675V39.8652V39.863V39.8607V39.8585V39.8562V39.854V39.8517V39.8495V39.8472V39.845V39.8427V39.8405V39.8382V39.836V39.8337V39.8315V39.8292V39.827V39.8247V39.8225V39.8202V39.818V39.8157V39.8135V39.8112V39.809V39.8067V39.8045V39.8022V39.8V39.7977V39.7955V39.7932V39.791V39.7887V39.7865V39.7842V39.782V39.7797V39.7775V39.7752V39.773V39.7707V39.7685V39.7662V39.764V39.7617V39.7595V39.7572V39.755V39.7527V39.7505V39.7482V39.746V39.7437V39.7415V39.7392V39.737V39.7347V39.7325V39.7302V39.728V39.7257V39.7235V39.7212V39.719V39.7167V39.7145V39.7122V39.71V39.7077V39.7055V39.7032V39.701V39.6987V39.6965V39.6942V39.692V39.6897V39.6875V39.6852V39.683V39.6807V39.6785V39.6762V39.674V39.6717V39.6695V39.6672V39.665V39.6627V39.6605V39.6582V39.656V39.6537V39.6515V39.6492V39.647V39.6447V39.6425V39.6402V39.638V39.6357V39.6335V39.6312V39.629V39.6267V39.6245V39.6222V39.62V39.6177V39.6155V39.6132V39.611V39.6087V39.6065V39.6042V39.602V39.5997V39.5975V39.5952V39.593V39.5907V39.5885V39.5862V39.584V39.5817V39.5795V39.5772V39.575V39.5727V39.5705V39.5682V39.566V39.5637V39.5615V39.5592V39.557V39.5547V39.5525V39.5502V39.548V39.5457V39.5435V39.5412V39.539V39.5367V39.5345V39.5322V39.53V39.5277V39.5255V39.5232V39.521V39.5187V39.5165V39.5142V39.512V39.5097V39.5075V39.5052V39.503V39.5007V39.4985V39.4962V39.494V39.4917V39.4895V39.4872V39.485V39.4827V39.4805V39.4782V39.476V39.4737V39.4715V39.4692V39.467V39.4647V39.4625V39.4602V39.458V39.4557V39.4535V39.4512V39.449V39.4467V39.4445V39.4422V39.44V39.4377V39.4355V39.4332V39.431V39.4287V39.4265V39.4242V39.422V39.4197V39.4175V39.4152V39.413V39.4107V39.4085V39.4062V39.404V39.4017V39.3995V39.3972V39.395V39.3927V39.3905V39.3882V39.386V39.3837V39.3815V39.3792V39.377V39.3747V39.3725V39.3702V39.368V39.3657V39.3635V39.3612V39.359V39.3567V39.3545V39.3522V39.35V39.3477V39.3455V39.3432V39.341V39.3387V39.3365V39.3342V39.332V39.3297V39.3275V39.3252V39.323V39.3207V39.3185V39.3162V39.314V39.3117V39.3095V39.3072V39.305V39.3027V39.3005V39.2982V39.296V39.2937V39.2915V39.2892V39.287V39.2847V39.2825V39.2802V39.278V39.2757V39.2735V39.2712V39.269V39.2667V39.2645V39.2622V39.26V39.2577V39.2555V39.2532V39.251V39.2487V39.2465V39.2442V39.242V39.2397V39.2375V39.2352V39.233V39.2307V39.2285V39.2262V39.224V39.2217V39.2195V39.2172V39.215V39.2127V39.2105V39.2082V39.206V39.2037V39.2015V39.1992V39.197V39.1947V39.1925V39.1902V39.188V39.1857V39.1835V39.1812V39.179V39.1767V39.1745V39.1722V39.17V39.1677V39.1655V39.1632V39.161V39.1587V39.1565V39.1542V39.152C89.8866 35.9901 89.4493 33.218 88.561 30.8465C87.7256 28.4407 86.5402 26.4334 84.9963 24.8388C83.457 23.201 81.6188 21.984 79.4876 21.1899C77.4079 20.3491 75.1376 19.932 72.6826 19.932C70.0317 19.932 67.5445 20.3985 65.226 21.3353C62.9577 22.2233 60.9805 23.5076 59.2996 25.1879C57.6157 26.8231 56.284 28.8245 55.301 31.1837L55.299 31.1886C54.3597 33.5121 53.8946 36.0969 53.8946 38.936C53.8946 41.8218 54.3594 44.4309 55.299 46.7554L55.2989 46.7555L55.3041 46.7674C56.2891 49.0329 57.6229 50.9622 59.3079 52.5481L59.3079 52.5481L59.3132 52.553C61.0422 54.1338 63.0649 55.3659 65.3758 56.2509L65.3757 56.251L65.3845 56.2542C67.7012 57.0921 70.2315 57.508 72.9706 57.508C79.5854 57.508 84.689 55.1468 88.2046 50.3933L88.4908 50.0063L88.1149 49.7056L82.3549 45.0976L81.9358 44.7622L81.631 45.2041C80.7166 46.53 79.5531 47.5802 78.1357 48.3586C76.7371 49.079 74.9984 49.452 72.8986 49.452C71.7097 49.452 70.5692 49.2465 69.4742 48.8358C68.3703 48.4219 67.3862 47.8723 66.5186 47.1884C65.6567 46.4615 64.9554 45.6244 64.4116 44.676C63.9939 43.837 63.7192 42.9313 63.5894 41.956H89.3146ZM97.8983 1.06799H97.3983V1.56799V56V56.5H97.8983H106.538H107.038V56V1.56799V1.06799H106.538H97.8983ZM117.164 1.06799H116.664V1.56799V56V56.5H117.164H125.804H126.304V56V1.56799V1.06799H125.804H117.164ZM135.253 30.956L135.251 30.9606C134.26 33.2396 133.77 35.7807 133.77 38.576C133.77 41.3715 134.26 43.9351 135.249 46.2598L135.253 46.268C136.286 48.5787 137.665 50.576 139.393 52.2547L139.399 52.2598C141.128 53.8904 143.175 55.1713 145.534 56.1049C147.899 57.0411 150.41 57.508 153.062 57.508C155.714 57.508 158.224 57.0411 160.59 56.1049C162.948 55.1713 164.995 53.8904 166.725 52.2598L166.73 52.2546C168.459 50.575 169.816 48.5761 170.8 46.2633C171.838 43.9378 172.354 41.3728 172.354 38.576C172.354 35.7799 171.839 33.2378 170.799 30.9583C169.814 28.6454 168.456 26.669 166.725 25.0362C164.993 23.4037 162.943 22.1456 160.581 21.2598C158.218 20.3737 155.71 19.932 153.062 19.932C150.413 19.932 147.905 20.3737 145.542 21.2598C143.18 22.1456 141.13 23.4037 139.399 25.0362C137.667 26.6686 136.286 28.6441 135.253 30.956ZM161.946 42.455L161.943 42.4628L161.941 42.4706C161.573 43.7566 161.001 44.8988 160.226 45.9023C159.455 46.8994 158.479 47.7189 157.289 48.3598C156.128 48.9848 154.725 49.308 153.062 49.308C151.398 49.308 149.995 48.9848 148.835 48.3598C147.644 47.7189 146.668 46.8994 145.897 45.9023C145.12 44.8967 144.523 43.7516 144.108 42.4627C143.738 41.1642 143.554 39.8691 143.554 38.576C143.554 37.2822 143.738 36.0119 144.107 34.7634C144.523 33.4737 145.12 32.3278 145.897 31.3217C146.665 30.3279 147.637 29.5352 148.821 28.9432L148.828 28.9398L148.835 28.9362C149.995 28.3112 151.398 27.988 153.062 27.988C154.725 27.988 156.128 28.3112 157.289 28.9362L157.295 28.9398L157.302 28.9432C158.486 29.5352 159.458 30.3279 160.226 31.3217C161.001 32.3251 161.573 33.4674 161.941 34.7534L161.944 34.7638L161.947 34.7741C162.363 36.02 162.57 37.2866 162.57 38.576C162.57 39.8655 162.362 41.1579 161.946 42.455Z" stroke="black"/>
</svg>
