<svg xmlns="http://www.w3.org/2000/svg" viewBox="0 0 53.21 40.09"><defs><style>.cls-1{fill:#bc8cf3;}.cls-2{fill:#050505;}.cls-3{fill:none;stroke:#050505;stroke-miterlimit:10;stroke-width:0.75px;}</style></defs><title>Asset 2</title><g id="Layer_2" data-name="Layer 2"><g id="Layer_1-2" data-name="Layer 1"><g id="HomeButton"><path class="cls-1" d="M0,30.4V1H5.38L19.19,21.71V1h5.38V30.4H19.19L5.38,9.74V30.4Z"/><path class="cls-2" d="M25.82.75v27.9H21.59L8,8.32,6.63,6.26V28.65H2.75V.75H7l13.6,20.37,1.37,2.06V.75h3.88M26.57,0H21.19V20.71L7.38,0H2V29.4H7.38V8.74L21.19,29.4h5.38V0Z"/><path class="cls-1" d="M31,40.09V36L44.54,15.18H31.14V10.69H50.75v4.12L37.15,35.6H50.84v4.49Z"/><path class="cls-3" d="M33,38.09V34L46.54,13.18H33.14V8.69H52.75v4.12L39.15,33.6H52.84v4.49Z"/></g></g></g></svg>